REM MD5 8c95787fdbc314d9c0f3514d8fd215a4
FILE "Euro Demo 07 (France).bin" BINARY
  TRACK 01 MODE2/2352
    INDEX 01 00:00:00
  TRACK 02 AUDIO
    INDEX 00 18:41:42
    INDEX 01 18:43:42
  TRACK 03 AUDIO
    INDEX 00 20:38:29
    INDEX 01 20:40:29
  TRACK 04 AUDIO
    INDEX 00 24:28:54
    INDEX 01 24:30:54
REM LEADOUT 27:40:63
